# xmcd
#
# Track frame offsets: 
#        150
#        9625
#        23082
#        36013
#        48728
#        60185
#        72045
#        87146
#        96493
#        110538
#        124528
#        139710
#
# Disc length: 2025 seconds
#
# Revision: 0
# Processed by: cddbd v1.5.2PL0 Copyright (c) Steve Scherf et al.
# Submitted via: ExactAudioCopyFreeDBPlugin 1.0
#
DISCID=9607e70c
DTITLE=Roy Orbison - One Of The Lonely Ones
DYEAR=2015
DGENRE=Ballad
TTITLE0=You'll Never Walk Alone
TTITLE1=Say No More
TTITLE2=Leaving Makes The Rain Come Down
TTITLE3=Sweet Memories
TTITLE4=Laurie
TTITLE5=One Of The Lonely Ones
TTITLE6=Child Woman, Woman Child
TTITLE7=The Defector
TTITLE8=Give Up
TTITLE9=Little Girl (In The Big City)
TTITLE10=After Tonight
TTITLE11=I Will Always
EXTD=
EXTT0=
EXTT1=
EXTT2=
EXTT3=
EXTT4=
EXTT5=
EXTT6=
EXTT7=
EXTT8=
EXTT9=
EXTT10=
EXTT11=
PLAYORDER=
